# AST/ASF file generated using VICON BodyLanguage
# -----------------------------------------------
:version 1.10
:name VICON
:units
  mass 1.0
  length 0.45
  angle deg
:documentation
   .ast/.asf automatically generated from VICON data using
   VICON BodyBuilder and BodyLanguage model FoxedUp or BRILLIANT.MOD
:root
   order TX TY TZ RX RY RZ
   axis XYZ
   position 0 0 0  
   orientation 0 0 0 
:bonedata
  begin
     id 1 
     name lhipjoint
     direction 0.682418 -0.694059 0.22932 
     length 2.25561 
     axis 0 0 0  XYZ
  end
  begin
     id 2 
     name lfemur
     direction 0.34202 -0.939693 0  
     length 6.96448  
     axis 0 0 20  XYZ
    dof rx ry rz
    limits (-160.0 20.0)
           (-70.0 70.0)
           (-60.0 70.0)
  end
  begin
     id 3 
     name ltibia
     direction 0.34202 -0.939693 0   
     length 6.88553   
     axis 0 0 20   XYZ
    dof rx
    limits (-10.0 170.0)
  end
  begin
     id 4 
     name lfoot
     direction 0.0723587 -0.198804 0.977364   
     length 1.88518   
     axis -90 7.62852e-016 20   XYZ
    dof rx rz
    limits (-45.0 90.0)
           (-70.0 20.0)
  end
  begin
     id 5 
     name ltoes
     direction 1.53558e-011 -4.21962e-011 1   
     length 0.952124   
     axis -90 7.62852e-016 20   XYZ
    dof rx
    limits (-90.0 20.0)
  end
  begin
     id 6 
     name rhipjoint
     direction -0.657603 -0.71533 0.236348   
     length 2.18854  
     axis 0 0 0  XYZ 
  end
  begin
     id 7 
     name rfemur
     direction -0.34202 -0.939693 0   
     length 6.86686   
     axis 0 0 -20   XYZ
    dof rx ry rz
    limits (-160.0 20.0)
           (-70.0 70.0)
           (-70.0 60.0)
  end
  begin
     id 8 
     name rtibia
     direction -0.34202 -0.939693 0   
     length 6.59503   
     axis 0 0 -20   XYZ
    dof rx
    limits (-10.0 170.0)
 end
 begin
     id 9 
     name rfoot
     direction -0.101977 -0.280179 0.954516   
     length 1.93723  
     axis -90 -7.62852e-016 -20   XYZ
    dof rx rz
    limits (-45.0 90.0)
           (-20.0 70.0)
  end
  begin
     id 10 
     name rtoes
     direction -1.53564e-011 -4.21897e-011 1   
     length 0.970315   
     axis -90 -7.62852e-016 -20   XYZ
    dof rx
    limits (-90.0 20.0)
  end
  begin
     id 11 
     name lowerback
     direction -0.0339559 0.999421 -0.00235966   
     length 1.88543   
     axis 0 0 0   XYZ
    dof rx ry rz
    limits (-20.0 45.0)
           (-30.0 30.0)
           (-30.0 30.0)
  end
  begin
     id 12 
     name upperback
     direction 0.00401003 0.999739 0.0224689   
     length 1.8856   
     axis 0 0 0   XYZ
    dof rx ry rz
    limits (-20.0 45.0)
           (-30.0 30.0)
           (-30.0 30.0)
  end
  begin
     id 13 
     name thorax
     direction 0.0198619 0.999546 0.0226536   
     length 1.88352   
     axis 0 0 0   XYZ
    dof rx ry rz
    limits (-20.0 45.0)
           (-30.0 30.0)
           (-30.0 30.0)
  end
  begin
     id 14 
     name lowerneck
     direction -0.0461848 0.998632 0.0245198   
     length 1.34895   
     axis 0 0 0   XYZ
    dof rx ry rz
    limits (-20.0 45.0)
           (-30.0 30.0)
           (-30.0 30.0)
  end
  begin
     id 15 
     name upperneck
     direction -0.0180627 0.994724 -0.100984   
     length 1.35214   
     axis 0 0 0   XYZ
    dof rx ry rz
    limits (-20.0 45.0)
           (-30.0 30.0)
           (-30.0 30.0)
  end
  begin
     id 16
     name head
     direction -0.00374772 0.999293 -0.037403  
     length 1.3568  
     axis 0 0 0   XYZ
    dof rx ry rz
    limits (-20.0 45.0)
           (-30.0 30.0)
           (-30.0 30.0)
  end
  begin
     id 17 
     name lclavicle
     direction 0.971773 0.191119 0.138311  
     length 2.84954  
     axis 0 0 0   XYZ
    dof ry rz
    limits (-20.0 10.0)
           (0.0 20.0)
  end
  begin
     id 18 
     name lhumerus
     direction 1 -4.4897e-011 -2.43761e-027   
     length 4.40919   
     axis 180 -30 -90   XYZ
    dof rx ry rz
    limits (-60.0 90.0)
           (-90.0 90.0)
           (-90.0 90.0)
  end
  begin
     id 19
     name lradius
     direction 1 -4.4896e-011 -9.1621e-027   
     length 3.03857   
     axis 180 -30 -90   XYZ
    dof rx
    limits (-10.0 170.0)
  end
  begin
     id 20
     name lwrist
     direction 1 -4.4896e-011 -1.41363e-026   
     length 1.51928   
     axis 1.07133e-014 90 90   XYZ
    dof ry
    limits (-180.0 0.0)
 end
  begin
     id 21 
     name lhand
     direction 1 -4.48978e-011 -2.82725e-026   
     length 0.523208   
     axis 1.80403e-014 90 90   XYZ
    dof rx rz
    limits (-90.0 90.0)
           (-45.0 45.0)
  end
  begin
     id 22 
     name lfingers
     direction 1 -4.48977e-011 -5.6545e-026   
     length 0.421824   
     axis 3.60806e-014 90 90   XYZ
    dof rx
    limits (0.0 90.0)
  end
  begin
     id 23
     name lthumb
     direction 0.707107 -6.34962e-011 0.707107   
     length 0.605657   
     axis -90 45 2.85299e-015   XYZ
    dof rx rz
    limits (-45.0 45.0)
           (-45.0 45.0)
  end
  begin
     id 24 
     name rclavicle
     direction -0.957247 0.24311 0.156766   
     length 3.12406  
     axis 0 0 0   XYZ 
    dof ry rz
    limits (-10.0 20.0)
           (-20.0 0.0)
  end
  begin
     id 25 
     name rhumerus
     direction -1 -4.48964e-011 -1.70632e-027  
     length 4.61969   
     axis 180 30 90   XYZ
    dof rx ry rz
    limits (-90.0 60.0)
           (-90.0 90.0)
           (-90.0 90.0)
  end
  begin
     id 26 
     name rradius
     direction -1 -4.48966e-011 -6.60395e-027   
     length 3.09382   
     axis 180 30 90   XYZ
    dof rx
    limits (-10.0 170.0)
  end
  begin
     id 27 
     name rwrist
     direction -1 -4.48963e-011 -1.41363e-026   
     length 1.54691   
     axis 1.07133e-014 -90 -90   XYZ
    dof ry
    limits (-180.0 0.0)
  end
  begin
     id 28
     name rhand
     direction -1 -4.49013e-011 -2.82725e-026   
     length 0.500896   
     axis 1.80403e-014 -90 -90   XYZ
    dof rx rz
    limits (-90.0 90.0)
           (-45.0 45.0)
  end
  begin
     id 29
     name rfingers
     direction -1 -4.48902e-011 -5.6545e-026   
     length 0.403835   
     axis 3.60806e-014 -90 -90   XYZ
    dof rx
    limits (0.0 90.0)
  end
  begin
     id 30
     name rthumb
     direction -0.707107 -6.34953e-011 0.707107   
     length 0.579829   
     axis -90 -45 -2.85299e-015   XYZ
    dof rx rz
    limits (-45.0 45.0)
           (-45.0 45.0)
  end
:hierarchy
  begin
    root lhipjoint rhipjoint lowerback
    lhipjoint lfemur
    lfemur ltibia
    ltibia lfoot
    lfoot ltoes
    rhipjoint rfemur
    rfemur rtibia
    rtibia rfoot
    rfoot rtoes
    lowerback upperback
    upperback thorax
    thorax lowerneck lclavicle rclavicle
    lowerneck upperneck
    upperneck head
    lclavicle lhumerus
    lhumerus lradius
    lradius lwrist
    lwrist lhand lthumb
    lhand lfingers
    rclavicle rhumerus
    rhumerus rradius
    rradius rwrist
    rwrist rhand rthumb
    rhand rfingers
  end

#!OML:ASF E:\madness\Project 1\Capture day 1\Session 1\Female1.ASF
:FULLY-SPECIFIED
:DEGREES
352
root 8.48536 15.5226 2.68299 -174.639 -78.4676 195.579
lowerback 31.3056 0.913267 0.737487
upperback 10.4673 0.347376 2.99011
thorax -5.28502 -0.385074 2.83974
lowerneck -7.86623 7.28557 3.26304
upperneck 7.82393 10.9645 -17.1336
head 4.82528 4.56702 -5.06921
rclavicle 1.16289e-014 3.74709e-014
rhumerus -43.3803 -17.0354 -25.2069
rradius 79.8918
rwrist -32.5592
rhand -16.2307 -41.4163
rfingers 7.12502
rthumb 9.97756 -71.1598
lclavicle 1.16289e-014 3.74709e-014
lhumerus -25.8372 2.27243 60.1391
lradius 102.24
lwrist 4.00749
lhand -45.0692 -0.851801
lfingers 7.12502
lthumb -17.8502 28.349
rfemur -52.5981 8.40907 1.99136
rtibia 58.7329
rfoot -9.64991 2.52208
rtoes 3.53233
lfemur -48.7409 -4.56212 -16.6233
ltibia 47.7148
lfoot -18.2492 4.36904
ltoes -10.8861
353
root 8.49916 15.4987 2.62374 -173.727 -78.723 194.658
lowerback 31.3813 0.879036 0.646746
upperback 10.4472 0.280136 2.89556
thorax -5.34001 -0.413019 2.81092
lowerneck -8.13936 7.44469 3.6227
upperneck 8.29049 11.2599 -17.5905
head 5.09712 4.65389 -5.2364
rclavicle -1.64991e-014 5.82439e-014
rhumerus -43.8725 -17.1877 -23.71
rradius 81.4133
rwrist -32.8475
rhand -16.3694 -41.7772
rfingers 7.12502
rthumb 9.84375 -71.527
lclavicle -1.64991e-014 5.82439e-014
lhumerus -26.5515 2.70856 60.0925
lradius 103.013
lwrist 2.97407
lhand -45.5762 -1.22637
lfingers 7.12502
lthumb -18.338 27.9292
rfemur -52.2922 8.67158 1.69581
rtibia 58.587
rfoot -10.8196 1.39456
rtoes 3.32854
lfemur -48.9435 -4.87167 -16.5609
ltibia 47.906
lfoot -18.1015 4.39752
ltoes -14.0713
354
root 8.50708 15.4954 2.56069 -173.122 -78.6417 193.966
lowerback 31.3943 1.0315 0.382929
upperback 10.5449 0.373187 2.80927
thorax -5.24206 -0.375822 2.83383
lowerneck -8.64746 7.58785 3.74581
upperneck 8.97285 11.5633 -17.7132
head 5.44485 4.73006 -5.25037
rclavicle -3.57812e-015 1.51076e-014
rhumerus -44.1789 -17.4944 -22.274
rradius 82.7483
rwrist -33.1661
rhand -15.6419 -42.8036
rfingers 7.12502
rthumb 10.5456 -72.5191
lclavicle -3.57812e-015 1.51076e-014
lhumerus -27.2297 3.22818 60.1844
lradius 103.673
lwrist 2.34193
lhand -45.9331 -1.86005
lfingers 7.12502
lthumb -18.6813 27.2629
rfemur -51.983 9.24965 1.44087
rtibia 58.4265
rfoot -11.9217 0.288469
rtoes 2.58617
lfemur -48.9003 -5.00613 -16.408
ltibia 48.0577
lfoot -17.9622 4.53837
ltoes -16.0554
355
root 8.51495 15.5033 2.51267 -173.238 -78.6822 193.987
lowerback 31.4597 0.987455 0.454904
upperback 10.8022 0.282343 2.63717
thorax -4.97335 -0.431964 2.62814
lowerneck -9.6438 7.88117 3.97786
upperneck 9.37798 12.0462 -17.8853
head 5.82765 4.88837 -5.26041
rclavicle 2.55438e-014 1.68967e-014
rhumerus -44.0535 -18.2059 -21.2667
rradius 84.0132
rwrist -33.4926
rhand -16.3663 -42.4537
rfingers 7.12502
rthumb 9.8468 -72.2035
lclavicle 2.55438e-014 1.68967e-014
lhumerus -27.5475 3.91228 59.8313
lradius 104.02
lwrist 2.17416
lhand -46.215 -2.83873
lfingers 7.12502
lthumb -18.9525 26.2579
rfemur -51.6311 9.66408 1.33479
rtibia 58.1965
rfoot -12.6222 -0.63264
rtoes 1.79039
lfemur -48.839 -5.33204 -16.1239
ltibia 48.1299
lfoot -17.5794 4.91499
ltoes -16.0372
356
root 8.52389 15.5096 2.45927 -173.74 -78.6011 194.375
lowerback 31.5645 1.16034 0.774284
upperback 10.6856 0.607356 2.63179
thorax -5.16151 -0.265945 2.32795
lowerneck -9.49672 7.73577 3.69993
upperneck 9.99368 11.9479 -17.8005
head 5.95848 4.79963 -5.20684
rclavicle 2.40529e-014 2.65378e-014
rhumerus -44.9964 -18.2965 -19.3306
rradius 85.3648
rwrist -34.1351
rhand -16.8585 -39.7546
rfingers 7.12502
rthumb 9.37189 -69.5263
lclavicle 2.40529e-014 2.65378e-014
lhumerus -28.2191 3.56453 59.753
lradius 104.037
lwrist 2.24195
lhand -46.4541 -3.54418
lfingers 7.12502
lthumb -19.1824 25.5298
rfemur -51.323 10.1374 1.32177
rtibia 57.9773
rfoot -13.0983 -1.22163
rtoes 2.43586
lfemur -48.7571 -5.5652 -15.744
ltibia 48.1892
lfoot -17.0356 5.62396
ltoes -17.2336
357
root 8.53723 15.5139 2.39691 -173.515 -78.5517 193.879
lowerback 31.895 1.33483 0.736646
upperback 10.7367 0.794877 2.54187
thorax -5.25795 -0.181815 2.18707
lowerneck -10.3203 7.58118 3.50488
upperneck 11.7377 11.8654 -16.5743
head 6.54041 4.68836 -4.76914
rclavicle -1.55052e-014 -1.43125e-014
rhumerus -45.3858 -18.6282 -17.8117
rradius 86.4192
rwrist -34.7857
rhand -16.9418 -38.2759
rfingers 7.12502
rthumb 9.29152 -68.0511
lclavicle -1.55052e-014 -1.43125e-014
lhumerus -28.5285 3.61958 58.7435
lradius 103.636
lwrist 2.70812
lhand -46.9182 -3.37214
lfingers 7.12502
lthumb -19.6286 25.6569
rfemur -50.917 10.5571 1.18125
rtibia 57.818
rfoot -13.5079 -1.65541
rtoes 3.29014
lfemur -48.5103 -5.93003 -15.452
ltibia 48.2586
lfoot -16.6196 6.06807
ltoes -18.0377
358
root 8.55582 15.5063 2.34351 -173.164 -78.5117 193.517
lowerback 31.9615 1.29421 0.526376
upperback 10.6774 0.693328 2.56522
thorax -5.35606 -0.230729 2.372
lowerneck -9.47186 7.94908 3.57661
upperneck 10.5983 12.3593 -17.9632
head 6.19513 4.94206 -5.19862
rclavicle -2.92213e-014 3.03147e-014
rhumerus -44.778 -18.6036 -16.6498
rradius 87.4115
rwrist -35.3622
rhand -17.3385 -39.2367
rfingers 7.12502
rthumb 8.90869 -69.0286
lclavicle -2.92213e-014 3.03147e-014
lhumerus -30.1733 4.83958 58.8309
lradius 103.742
lwrist 1.84218
lhand -47.5338 -3.4766
lfingers 7.12502
lthumb -20.2204 25.491
rfemur -50.9055 10.668 1.03263
rtibia 57.7634
rfoot -13.8089 -1.86662
rtoes 3.75479
lfemur -48.6321 -6.36281 -15.0944
ltibia 48.4396
lfoot -16.3382 6.40579
ltoes -17.456
359
root 8.56576 15.5136 2.28447 -174.125 -78.403 194.146
lowerback 32.3186 1.34039 0.530301
upperback 10.69 0.745433 2.63819
thorax -5.50378 -0.214625 2.43777
lowerneck -6.45168 8.21506 4.26425
upperneck 7.73504 12.3625 -20.0072
head 4.9731 5.20336 -6.0694
rclavicle -6.75868e-015 -1.49089e-014
rhumerus -44.4004 -18.6361 -15.4755
rradius 88.5936
rwrist -35.9122
rhand -17.4678 -40.1685
rfingers 7.12502
rthumb 8.78398 -69.9657
lclavicle -6.75868e-015 -1.49089e-014
lhumerus -30.1619 5.11953 56.2682
lradius 102.376
lwrist 3.91421
lhand -47.8878 -3.0872
lfingers 7.12502
lthumb -20.5606 25.844
rfemur -50.4387 10.9778 1.22468
rtibia 57.7009
rfoot -14.3027 -1.92308
rtoes 4.95296
lfemur -48.2313 -6.64661 -14.6295
ltibia 48.5688
lfoot -16.1312 6.97595
ltoes -17.2297
360
root 8.58896 15.5068 2.23171 -174.525 -78.02 194.885
lowerback 32.0095 1.50933 0.682675
upperback 10.5776 1.01839 2.58808
thorax -5.50047 -0.0720407 2.19411
lowerneck -6.06368 8.27848 5.32141
upperneck 7.93446 12.5021 -21.2922
head 5.14482 5.24461 -6.66754
rclavicle 2.56432e-014 3.43897e-014
rhumerus -44.2592 -18.7466 -14.249
rradius 89.6407
rwrist -36.4037
rhand -17.4171 -40.2117
rfingers 7.12502
rthumb 8.83284 -70.0068
lclavicle 2.56432e-014 3.43897e-014
lhumerus -30.6774 5.51844 55.1294
lradius 101.3
lwrist 4.48105
lhand -48.3703 -2.27834
lfingers 7.12502
lthumb -21.0242 26.602
rfemur -50.9629 11.1096 1.25649
rtibia 57.6602
rfoot -14.6525 -1.81289
rtoes 4.96215
lfemur -48.6248 -6.71777 -14.0131
ltibia 48.6372
lfoot -15.5561 7.55438
ltoes -17.0348
361
root 8.60797 15.5155 2.18016 -174.753 -77.8658 195.181
lowerback 32.0217 1.5508 0.964785
upperback 10.5579 1.14356 2.43764
thorax -5.52226 -0.0053931 1.81776
lowerneck -6.5086 8.30268 5.6308
upperneck 8.18032 12.5676 -21.3319
head 5.33096 5.2432 -6.71048
rclavicle -4.09496e-014 -6.65929e-014
rhumerus -43.9573 -18.991 -13.2596
rradius 90.6323
rwrist -36.6644
rhand -17.8954 -40.3268
rfingers 7.12502
rthumb 8.37126 -70.1409
lclavicle -4.09496e-014 -6.65929e-014
lhumerus -31.5889 6.22812 54.5149
lradius 100.526
lwrist 4.35132
lhand -48.5183 -0.357026
lfingers 7.12502
lthumb -21.1664 28.5075
rfemur -51.0826 11.0856 1.3178
rtibia 57.5822
rfoot -15.1062 -1.91247
rtoes 2.89459
lfemur -48.6498 -7.09497 -13.4682
ltibia 48.5266
lfoot -14.8996 8.16368
ltoes -17.1491
362
root 8.61894 15.5381 2.12214 -174.608 -77.5894 194.915
lowerback 32.0808 1.64838 0.890134
upperback 10.6815 1.20867 2.31847
thorax -5.409 0.0180724 1.70432
lowerneck -7.08222 8.44511 5.88705
upperneck 8.59352 12.8381 -21.4934
head 5.62885 5.31287 -6.76018
rclavicle -2.08724e-014 -1.39149e-014
rhumerus -43.1986 -19.2317 -12.5605
rradius 91.6191
rwrist -36.8026
rhand -18.2313 -40.4956
rfingers 7.12502
rthumb 8.04711 -70.3224
lclavicle -2.08724e-014 -1.39149e-014
lhumerus -32.704 7.36066 53.6931
lradius 99.686
lwrist 4.47808
lhand -48.4084 0.633662
lfingers 7.12502
lthumb -21.0608 29.51
rfemur -51.0259 11.2258 1.30506
rtibia 57.4997
rfoot -15.5484 -1.99649
rtoes 1.64251
lfemur -48.3062 -7.4455 -13.0728
ltibia 48.3046
lfoot -14.296 9.08655
ltoes -18.7948
363
root 8.63909 15.5494 2.06404 -173.921 -77.303 194.336
lowerback 32.0004 1.75378 0.6801
upperback 10.7081 1.26775 2.24963
thorax -5.3488 0.0439901 1.72764
lowerneck -7.22607 8.55572 5.99098
upperneck 8.69628 13.0219 -21.6819
head 5.73579 5.37947 -6.81577
rclavicle -3.3197e-014 -7.95139e-015
rhumerus -42.2991 -19.3834 -11.9687
rradius 92.5951
rwrist -36.9385
rhand -18.442 -40.4954
rfingers 7.12502
rthumb 7.84376 -70.3299
lclavicle -3.3197e-014 -7.95139e-015
lhumerus -34.2524 8.829 53.3479
lradius 98.8603
lwrist 4.20982
lhand -48.8519 -1.19995
lfingers 7.12502
lthumb -21.4868 27.6283
rfemur -51.3183 11.1941 1.15641
rtibia 57.4034
rfoot -15.7341 -1.74533
rtoes 2.46868
lfemur -48.2649 -7.77432 -12.704
ltibia 48
lfoot -13.6979 9.77934
ltoes -19.5771
364
root 8.66181 15.5599 2.00666 -173.545 -77.2222 194.007
lowerback 32.0694 1.74586 0.748911
upperback 10.6379 1.28517 2.20878
thorax -5.45736 0.0570543 1.63616
lowerneck -7.00281 8.61448 5.86418
upperneck 8.56839 13.1201 -21.9997
head 5.6892 5.42478 -6.8975
rclavicle -2.62396e-014 5.46658e-015
rhumerus -41.5302 -19.4254 -11.3438
rradius 93.7365
rwrist -37.0292
rhand -18.8331 -41.1125
rfingers 7.12502
rthumb 7.46626 -70.9607
lclavicle -2.62396e-014 5.46658e-015
lhumerus -36.2787 10.5538 53.9765
lradius 98.1972
lwrist 2.78652
lhand -49.8734 -2.40785
lfingers 7.12502
lthumb -22.4675 26.3052
rfemur -51.4554 11.0184 1.11316
rtibia 57.3143
rfoot -15.8358 -1.5149
rtoes 3.82618
lfemur -48.25 -8.17113 -12.2891
ltibia 47.6817
lfoot -13.3734 9.91099
ltoes -18.1528
365
root 8.67781 15.5877 1.94665 -173.425 -76.8473 193.873
lowerback 32.0292 1.8685 0.867973
upperback 10.5919 1.46823 2.08562
thorax -5.48921 0.149856 1.36482
lowerneck -6.38468 8.6694 6.28222
upperneck 8.41784 13.223 -23.0403
head 5.66141 5.47762 -7.33215
rclavicle 1.8487e-014 4.7112e-014
rhumerus -40.7953 -19.2967 -10.6969
rradius 94.823
rwrist -37.1469
rhand -18.7431 -42.198
rfingers 7.12502
rthumb 7.55316 -72.0431
lclavicle 1.8487e-014 4.7112e-014
lhumerus -36.49 10.6747 51.9916
lradius 95.6535
lwrist 4.10304
lhand -50.7734 -2.15477
lfingers 7.12502
lthumb -23.3313 26.4513
rfemur -51.485 11.1262 1.15215
rtibia 57.2044
rfoot -15.9576 -1.62652
rtoes 4.30216
lfemur -47.9842 -8.30478 -11.8966
ltibia 47.3497
lfoot -13.0083 10.2759
ltoes -17.7019
